{"glyphs":{":":{"x_min":0,"x_max":148,"ha":148,"o":"m 74 0 q 63 0 56 8 q 49 16 49 26 q 49 37 56 44 q 64 52 74 52 q 85 52 92 44 q 100 36 100 26 q 100 15 92 8 q 84 0 74 0 z m 74 307 q 63 307 56 315 q 49 323 49 333 q 49 344 56 352 q 64 359 74 359 q 85 359 92 351 q 100 343 100 333 q 100 322 92 315 q 84 307 74 307 z"},"$":{"x_min":0,"x_max":479,"ha":479,"o":"m 213 411 l 213 685 q 147 673 112 633 q 80 596 80 551 q 80 532 86 513 q 111 442 213 411 z m 244 29 q 321 42 362 97 q 400 146 400 204 q 400 272 349 321 q 314 353 253 370 l 244 372 z m 244 -55 l 213 -55 l 213 -4 q 168 -4 108 16 q 82 24 54 37 l 66 65 q 105 49 118 44 q 173 26 213 26 l 213 378 l 210 379 q 146 398 109 431 q 49 483 49 552 q 49 608 89 653 q 132 703 213 715 l 213 758 l 244 758 l 244 718 l 250 718 q 303 718 360 698 q 379 692 412 678 l 400 650 q 370 662 351 669 q 295 687 250 687 l 244 687 l 244 403 q 259 400 274 396 q 337 375 374 338 q 430 282 430 204 q 430 136 386 78 q 334 10 244 -2 z"},"?":{"x_min":0,"x_max":489,"ha":489,"o":"m 125 94 l 95 94 l 95 114 q 95 221 201 311 q 224 332 277 375 q 347 434 371 480 q 390 517 390 556 q 390 580 376 604 q 354 642 302 660 q 273 670 242 670 q 160 670 102 598 l 78 618 q 117 668 173 689 q 208 701 239 701 q 320 701 376 652 q 421 608 421 555 q 421 455 305 358 l 241 306 q 223 291 197 265 q 169 236 158 217 q 126 170 126 114 l 126 95 z m 115 0 q 101 0 92 11 q 88 18 88 25 q 88 40 100 48 q 107 52 114 52 q 127 52 136 40 q 140 33 140 26 q 140 12 126 3 q 120 0 115 0 z"},"<":{"x_min":0,"x_max":557,"ha":557,"o":"m 496 117 l 49 319 l 49 347 l 496 548 l 508 520 l 92 333 l 508 145 z"},"'":{"x_min":0,"x_max":128,"ha":128,"o":"m 79 521 l 49 521 l 49 700 l 79 700 z"},"=":{"x_min":0,"x_max":557,"ha":557,"o":"m 508 386 l 49 386 l 49 417 l 508 417 z m 508 250 l 49 250 l 49 280 l 508 280 z"},"a":{"x_min":0,"x_max":584,"ha":584,"o":"m 292 -2 q 225 -2 169 31 q 114 64 82 120 q 49 176 49 243 q 49 311 82 367 q 114 423 169 456 q 225 489 292 489 q 362 489 418 454 q 474 418 505 361 l 505 464 l 536 464 l 536 0 l 505 0 l 505 125 q 474 68 418 33 q 362 -2 292 -2 z m 292 28 q 351 28 399 57 q 447 86 476 135 q 504 184 504 243 q 504 302 476 351 q 447 400 399 429 q 351 458 292 458 q 233 458 185 429 q 136 400 108 352 q 79 303 79 243 q 79 184 108 135 q 137 86 185 57 q 233 28 292 28 z"},"L":{"x_min":0,"x_max":503,"ha":503,"o":"m 455 0 l 49 0 l 49 700 l 79 700 l 79 31 l 455 31 z"},"3":{"x_min":0,"x_max":545,"ha":545,"o":"m 269 -3 q 254 -3 240 -1 q 176 7 126 47 q 77 86 54 148 l 49 163 l 77 173 q 89 140 103 116 q 118 93 145 71 q 188 36 244 29 q 256 27 269 27 q 336 27 390 69 q 452 119 464 202 q 465 215 465 227 q 465 291 429 343 q 385 404 309 422 q 290 425 269 425 q 252 425 236 424 l 238 455 q 244 454 247 454 q 250 454 253 453 q 256 453 263 453 q 283 453 301 458 q 325 463 345 475 q 358 482 368 492 q 394 516 398 546 q 400 553 400 561 q 400 583 388 604 q 382 614 374 623 q 338 659 284 666 q 273 667 262 667 q 219 667 179 646 l 166 638 l 151 665 q 179 682 204 690 q 229 698 263 698 q 275 698 287 697 q 353 688 396 643 q 407 631 414 619 q 430 590 430 561 q 430 551 428 541 q 421 501 389 470 q 376 458 360 448 q 358 447 355 446 q 352 444 348 442 q 414 417 454 360 q 496 301 496 227 q 496 213 494 199 q 480 102 408 45 q 347 -3 269 -3 z"},";":{"x_min":0,"x_max":156,"ha":156,"o":"m 76 307 q 65 307 58 315 q 50 323 50 333 q 50 344 58 352 q 65 359 76 359 q 86 359 94 351 q 101 343 101 333 q 101 322 94 315 q 86 307 76 307 z m 83 -39 l 60 -25 l 74 1 q 73 0 71 0 q 62 0 55 7 q 49 14 49 23 q 49 32 55 39 q 63 46 73 46 q 85 46 96 37 q 107 29 107 14 q 107 6 102 -5 z"},"J":{"x_min":0,"x_max":583,"ha":583,"o":"m 292 0 q 225 0 169 33 q 114 66 82 122 q 49 178 49 246 l 49 270 l 80 269 l 79 246 q 79 186 108 137 q 137 88 185 60 q 233 31 292 31 q 336 31 375 47 q 413 64 442 94 q 477 129 490 168 q 504 208 504 257 l 504 700 l 534 700 l 534 258 q 534 145 464 72 q 431 38 386 19 q 342 0 292 0 z"},"V":{"x_min":0,"x_max":745,"ha":745,"o":"m 386 0 l 358 0 l 49 700 l 83 700 l 372 44 l 663 700 l 696 700 z"},"\"":{"x_min":0,"x_max":201,"ha":201,"o":"m 79 521 l 49 521 l 49 700 l 79 700 z m 152 521 l 122 521 l 122 700 l 152 700 z"},"7":{"x_min":0,"x_max":431,"ha":431,"o":"m 80 -7 l 52 5 q 108 134 138 203 q 168 273 185 312 q 202 350 218 386 q 233 422 261 485 q 289 548 342 669 l 49 669 l 49 700 l 382 700 l 382 685 l 375 669 q 316 535 287 468 q 258 400 242 365 q 228 331 212 294 q 196 258 166 190 q 136 122 80 -7 z"},"S":{"x_min":0,"x_max":479,"ha":479,"o":"m 213 -2 q 182 -2 147 6 q 129 10 108 18 q 89 24 68 33 l 54 39 l 66 67 q 82 60 93 56 q 103 52 118 46 q 137 40 155 36 q 186 28 213 28 q 259 28 296 46 q 333 63 357 92 q 382 123 393 160 q 399 182 399 206 q 399 220 397 234 q 390 277 358 313 q 326 349 266 368 q 243 375 220 379 q 146 399 105 436 q 65 473 54 517 q 49 536 49 555 q 49 573 54 591 q 63 627 90 657 q 116 686 156 703 q 196 720 248 720 q 283 720 324 710 q 341 707 360 700 q 378 694 397 686 l 412 680 l 400 652 q 384 658 374 662 q 364 666 351 671 q 333 677 316 681 q 280 689 248 689 q 203 689 169 675 q 135 660 113 636 q 91 613 83 583 q 80 569 80 554 q 80 540 83 525 q 92 488 128 457 q 163 426 227 409 q 275 397 317 379 q 358 360 388 327 q 417 294 427 239 q 430 223 430 208 q 430 179 422 151 q 410 108 380 72 q 352 39 309 18 q 267 -2 213 -2 z"},"}":{"x_min":0,"x_max":383,"ha":383,"o":"m 83 -52 l 64 -51 l 49 -49 l 51 -19 q 58 -20 62 -20 q 66 -20 70 -20 q 73 -21 80 -21 q 113 -21 131 -8 q 149 5 157 26 q 166 48 168 75 q 170 103 171 132 q 171 173 176 211 q 181 250 197 279 q 214 309 251 324 q 214 339 197 369 q 181 399 176 438 q 171 476 171 517 q 170 546 168 574 q 166 601 157 623 q 149 644 131 657 q 113 669 80 669 l 66 669 l 51 667 l 49 698 l 83 700 q 125 700 149 685 q 173 669 184 644 q 195 618 198 586 q 201 553 201 518 q 202 486 205 455 q 208 424 219 399 q 229 375 253 359 q 276 344 319 344 l 334 344 l 334 304 l 319 304 q 276 304 253 289 q 229 274 219 250 q 208 225 205 194 q 202 163 201 131 q 201 96 198 63 q 195 31 184 5 q 173 -21 149 -36 q 125 -52 83 -52 z"},"Z":{"x_min":0,"x_max":532,"ha":532,"o":"m 457 0 l 49 0 l 49 20 q 123 143 162 207 q 200 271 220 304 q 241 337 259 369 q 279 402 319 469 q 359 535 441 671 l 74 671 l 74 701 l 483 701 l 483 682 l 476 671 l 90 30 l 457 30 z"},"x":{"x_min":0,"x_max":501,"ha":501,"o":"m 453 0 l 411 0 l 250 207 l 89 0 l 51 0 l 231 231 l 49 465 l 88 465 l 250 256 l 413 465 l 451 465 l 270 231 l 430 25 z"},")":{"x_min":0,"x_max":284,"ha":284,"o":"m 73 -100 l 49 -82 q 127 23 166 119 q 205 215 205 313 q 205 414 166 502 q 126 590 49 681 l 72 701 l 82 689 q 235 509 235 313 q 235 209 195 109 q 154 9 73 -100 z"},"&":{"x_min":0,"x_max":680,"ha":680,"o":"m 276 0 q 198 0 137 49 q 65 106 51 203 q 49 217 49 231 q 49 310 97 372 q 138 425 204 449 q 144 477 127 516 q 118 537 118 558 q 118 587 133 615 q 162 667 206 686 q 232 697 258 697 q 303 697 335 667 q 363 642 370 596 l 372 581 l 342 577 q 339 601 333 616 q 328 632 314 645 q 296 662 271 666 l 258 667 q 238 667 218 658 q 183 643 160 601 q 148 580 148 558 q 148 513 202 483 q 225 471 259 462 l 273 458 l 266 428 l 252 428 q 169 416 121 354 q 80 299 80 231 q 80 219 81 206 q 93 123 155 73 q 209 31 276 31 q 289 31 301 33 q 384 45 433 108 q 474 162 474 230 q 474 240 471 269 l 457 273 q 441 277 428 281 q 415 284 402 284 q 387 284 378 275 l 369 263 l 345 283 q 358 300 369 307 q 380 315 402 315 q 418 315 438 310 q 457 305 477 299 q 497 292 516 288 q 536 283 553 283 q 583 283 598 302 l 607 314 l 631 295 l 622 283 q 597 251 555 251 q 530 251 503 259 q 503 252 504 245 q 505 238 505 230 q 505 151 457 89 q 400 17 305 2 q 291 0 276 0 z"},"_":{"x_min":0,"x_max":557,"ha":557,"o":"m 508 -33 l 49 -33 l 49 -2 l 508 -2 z"},"v":{"x_min":0,"x_max":537,"ha":537,"o":"m 282 0 l 254 0 l 49 465 l 83 465 l 269 44 l 455 465 l 488 465 z"},"O":{"x_min":0,"x_max":838,"ha":838,"o":"m 419 15 q 513 15 590 62 q 667 108 713 186 q 759 264 759 358 q 759 430 732 492 q 706 554 659 601 q 613 648 551 675 q 489 702 419 702 q 326 702 249 656 q 171 610 125 532 q 79 454 79 358 q 79 264 125 186 q 171 108 248 62 q 325 15 419 15 z m 419 -16 q 317 -16 233 35 q 148 85 99 170 q 49 255 49 358 q 49 462 99 547 q 149 632 233 682 q 317 732 419 732 q 521 732 605 682 q 689 631 739 547 q 789 462 789 358 q 789 256 740 171 q 690 86 606 35 q 522 -16 419 -16 z"},"(":{"x_min":0,"x_max":284,"ha":284,"o":"m 211 -100 q 130 9 89 109 q 49 209 49 313 q 49 509 202 689 l 212 701 l 235 681 q 158 590 118 502 q 79 414 79 313 q 79 215 118 119 q 157 23 235 -82 z"},"C":{"x_min":0,"x_max":731,"ha":731,"o":"m 419 -22 q 317 -22 233 29 q 149 79 99 164 q 49 249 49 352 q 49 456 99 541 q 149 625 233 676 q 317 726 419 726 q 491 726 548 703 q 605 681 659 637 l 640 613 q 613 635 588 650 q 563 665 530 677 q 476 695 419 695 q 325 695 248 649 q 171 603 125 525 q 79 447 79 352 q 79 257 125 179 q 171 102 248 55 q 325 9 419 9 q 482 9 542 32 q 602 55 651 101 l 662 111 l 683 89 q 653 61 624 40 q 595 20 555 4 q 489 -22 419 -22 z"},"W":{"x_min":0,"x_max":1012,"ha":1012,"o":"m 713 0 l 506 640 l 299 0 l 271 0 l 49 700 l 81 700 l 285 55 l 494 702 l 518 702 l 727 55 l 931 700 l 963 700 l 742 0 z"},"A":{"x_min":0,"x_max":744,"ha":744,"o":"m 695 0 l 662 0 l 531 298 l 214 298 l 81 0 l 49 0 q 105 130 125 174 l 194 329 l 359 700 l 386 700 z m 517 329 l 373 656 l 228 329 z"},"f":{"x_min":0,"x_max":292,"ha":292,"o":"m 117 0 l 87 0 q 87 84 87 126 q 87 167 87 188 q 87 210 86 230 q 86 252 86 298 q 86 344 86 441 l 49 441 l 49 472 l 86 472 l 86 562 q 86 575 89 586 q 99 623 127 643 q 156 663 192 663 q 210 663 228 659 l 243 655 l 235 625 q 231 626 228 627 q 220 629 213 631 q 207 632 196 632 l 193 632 q 166 632 145 617 q 125 604 118 579 q 116 570 116 559 l 116 472 l 191 472 l 191 441 l 116 441 q 116 344 116 298 q 117 252 117 230 q 117 210 117 188 q 117 167 117 126 q 117 84 117 0 z"},"Q":{"x_min":0,"x_max":838,"ha":838,"o":"m 419 15 q 514 15 591 62 q 668 108 714 186 q 759 264 759 358 q 759 430 733 492 q 706 554 660 601 q 613 648 551 675 q 490 702 419 702 q 326 702 249 656 q 172 610 126 532 q 80 454 80 358 q 80 264 125 186 q 171 108 248 62 q 325 15 419 15 z m 634 -109 q 601 -109 563 -95 q 525 -81 484 -62 q 443 -42 401 -27 q 358 -11 321 -11 q 299 -11 280 -18 q 260 -25 244 -42 l 233 -53 l 211 -31 q 229 -13 242 -3 q 256 7 276 14 q 209 42 157 94 q 106 146 78 213 q 49 281 49 358 q 49 436 78 504 q 106 572 157 623 q 208 674 275 703 q 343 732 419 732 q 496 732 563 703 q 630 674 681 623 q 732 572 761 504 q 790 436 790 358 q 790 281 761 213 q 732 146 681 94 q 588 0 451 -14 l 497 -34 q 535 -51 570 -65 q 605 -78 633 -78 q 659 -78 677 -62 l 688 -52 l 708 -74 q 690 -92 675 -101 q 660 -109 634 -109 z"},"w":{"x_min":0,"x_max":879,"ha":879,"o":"m 627 0 q 587 0 549 18 q 511 35 481 70 q 454 102 439 145 q 424 102 397 70 q 368 35 330 18 q 292 0 252 0 q 211 0 174 18 q 136 35 106 70 q 54 132 49 225 l 49 464 l 79 464 q 79 249 80 233 q 80 191 93 155 q 106 118 129 90 q 154 61 186 46 q 218 31 251 31 q 285 31 317 46 q 349 61 374 90 q 397 118 411 155 q 424 191 424 233 q 424 249 424 464 l 455 464 l 455 232 q 457 146 504 90 q 529 61 561 46 q 593 31 627 31 q 661 31 693 46 q 725 61 750 90 q 773 118 786 155 q 799 191 799 233 l 799 464 l 830 464 l 830 224 q 825 132 773 70 q 743 35 705 18 q 667 0 627 0 z"},"-":{"x_min":0,"x_max":312,"ha":312,"o":"m 263 318 l 49 318 l 49 349 l 263 349 z"},"E":{"x_min":0,"x_max":496,"ha":496,"o":"m 442 0 l 63 0 l 49 0 l 49 700 q 63 700 447 700 l 447 669 l 79 669 l 79 383 l 444 383 l 444 353 l 79 353 l 79 31 l 442 31 z"},"s":{"x_min":0,"x_max":366,"ha":366,"o":"m 166 0 q 144 0 120 6 q 108 9 92 14 q 81 18 73 21 q 64 24 51 31 l 63 59 l 77 53 q 90 47 102 43 q 115 39 127 36 q 147 31 165 31 q 197 31 222 44 q 247 57 263 77 q 279 98 285 124 q 287 135 287 146 q 287 161 283 174 q 276 201 253 222 q 231 243 191 254 l 158 262 q 115 275 90 298 q 64 320 55 348 q 49 365 49 382 q 49 394 51 404 q 58 432 78 455 q 96 476 124 488 q 152 500 189 500 q 213 500 242 494 q 253 491 267 486 q 275 484 281 481 q 287 479 294 476 q 299 474 306 471 l 294 442 l 281 448 q 269 454 257 457 q 247 461 237 463 q 236 463 234 464 q 210 469 189 469 q 160 469 137 460 q 114 450 100 435 q 85 418 81 398 q 80 391 80 383 q 80 370 84 358 q 91 336 114 318 q 137 299 176 289 q 183 287 188 286 q 200 284 212 280 q 255 266 280 240 q 304 214 312 183 q 317 165 317 146 q 317 132 314 118 q 307 85 287 58 q 267 32 236 16 q 205 0 166 0 z"},">":{"x_min":0,"x_max":557,"ha":557,"o":"m 62 117 l 49 145 l 464 333 l 49 520 l 61 548 l 508 347 l 508 319 z"},"l":{"x_min":0,"x_max":128,"ha":128,"o":"m 80 0 l 49 0 l 49 683 l 80 683 z"},"8":{"x_min":0,"x_max":518,"ha":518,"o":"m 259 29 q 309 29 349 54 q 390 78 414 119 q 438 161 438 210 q 438 261 414 302 q 390 343 349 367 q 309 392 259 392 q 209 392 169 368 q 128 343 104 302 q 79 261 79 210 q 79 160 103 119 q 127 78 168 54 q 209 29 259 29 z m 259 424 q 309 424 345 460 q 380 496 380 547 q 380 598 345 634 q 309 669 259 669 q 208 669 173 634 q 137 598 137 547 q 137 496 173 460 q 208 424 259 424 z m 259 -1 q 201 -1 153 27 q 105 56 77 104 q 49 152 49 210 q 49 280 88 334 q 126 388 188 411 q 151 430 129 466 q 107 502 107 547 q 107 610 151 655 q 196 700 259 700 q 322 700 366 655 q 411 610 411 547 q 411 483 366 438 q 350 421 329 411 q 391 388 430 334 q 469 280 469 210 q 469 152 441 104 q 413 56 365 27 q 317 -1 259 -1 z"},"\\":{"x_min":0,"x_max":669,"ha":669,"o":"m 597 -6 l 49 690 l 73 709 l 621 13 z"},"e":{"x_min":0,"x_max":542,"ha":542,"o":"m 167 75 l 419 421 q 390 442 358 453 q 326 463 292 463 q 280 463 267 461 q 183 451 125 381 q 102 351 91 317 q 80 283 80 248 q 80 235 81 222 q 91 137 161 79 z m 292 2 q 252 2 214 16 q 176 29 143 55 q 62 121 51 219 q 49 233 49 248 q 49 288 62 327 q 75 365 101 399 q 167 480 263 492 q 277 494 292 494 q 332 494 370 481 q 409 468 442 441 l 460 426 l 192 59 q 241 33 292 33 q 305 33 318 35 q 402 45 460 116 l 469 128 l 493 109 q 426 17 322 4 q 307 2 292 2 z"},"b":{"x_min":0,"x_max":584,"ha":584,"o":"m 292 -2 q 223 -2 167 33 q 111 68 79 125 l 79 0 l 49 0 l 49 683 l 79 683 l 79 361 q 111 418 167 454 q 223 489 292 489 q 360 489 415 456 q 470 423 503 367 q 536 311 536 243 q 536 176 503 120 q 470 64 415 31 q 360 -2 292 -2 z m 292 28 q 352 28 400 57 q 448 86 477 135 q 505 184 505 243 q 505 303 477 352 q 448 400 400 429 q 352 458 292 458 q 233 458 185 429 q 137 400 109 351 q 80 302 80 243 q 80 199 97 160 q 113 121 142 92 q 171 62 210 45 q 249 28 292 28 z"},"%":{"x_min":0,"x_max":689,"ha":689,"o":"m 74 -6 l 50 13 l 598 709 l 622 690 z m 517 0 q 466 0 429 37 q 393 73 393 125 q 393 177 429 213 q 466 250 517 250 q 568 250 604 213 q 641 177 641 125 q 641 73 604 37 q 568 0 517 0 z m 517 31 q 556 31 583 58 q 610 86 610 125 q 610 164 583 192 q 556 219 517 219 q 478 219 451 192 q 424 164 424 125 q 424 86 451 58 q 478 31 517 31 z m 172 446 q 121 446 85 482 q 49 519 49 571 q 49 623 85 659 q 122 696 172 696 q 224 696 260 659 q 296 623 296 571 q 296 520 260 483 q 224 446 172 446 z m 172 477 q 211 477 238 504 q 266 532 266 571 q 266 610 238 637 q 211 665 172 665 q 134 665 106 638 q 79 610 79 571 q 79 532 106 504 q 134 477 172 477 z"},"m":{"x_min":0,"x_max":878,"ha":878,"o":"m 829 0 l 799 0 l 799 243 q 799 333 749 396 q 724 427 692 443 q 660 458 626 458 q 593 458 561 443 q 529 427 504 396 q 480 367 467 327 q 454 288 454 243 l 454 0 l 424 0 l 423 243 q 423 288 410 327 q 397 367 374 396 q 349 427 317 443 q 285 458 251 458 q 218 458 186 443 q 154 427 129 396 q 85 342 80 260 l 80 0 l 49 0 l 49 464 l 80 464 l 80 375 q 91 397 105 416 q 135 452 173 470 q 211 489 251 489 q 292 489 330 470 q 368 452 397 416 q 423 382 439 337 q 454 382 480 416 q 510 452 548 470 q 586 489 626 489 q 667 489 705 470 q 743 452 772 416 q 825 350 829 252 z"},"#":{"x_min":0,"x_max":723,"ha":723,"o":"m 165 251 l 217 453 l 95 453 l 95 483 l 226 483 l 282 698 l 312 698 l 256 483 l 517 483 l 574 698 l 604 698 l 547 483 l 674 483 l 674 453 l 539 453 l 486 251 l 627 251 l 627 221 l 478 221 l 420 0 l 390 0 l 448 221 l 187 221 l 128 0 l 98 0 l 156 221 l 49 221 l 49 251 z m 248 453 l 195 251 l 456 251 l 509 453 z"},",":{"x_min":0,"x_max":156,"ha":156,"o":"m 83 -39 l 60 -25 l 74 1 q 73 0 71 0 q 62 0 55 7 q 49 14 49 23 q 49 32 55 39 q 63 46 73 46 q 85 46 96 37 q 107 29 107 14 q 107 6 102 -5 z"},"n":{"x_min":0,"x_max":503,"ha":503,"o":"m 454 0 l 423 0 l 423 243 q 423 288 410 327 q 397 367 374 396 q 349 427 317 443 q 285 458 251 458 q 218 458 186 443 q 154 427 129 396 q 85 342 79 260 l 79 0 l 49 0 l 49 464 l 79 464 l 79 375 q 91 397 105 416 q 135 452 173 470 q 211 489 251 489 q 291 489 329 470 q 367 452 397 416 q 449 350 454 252 z"},"h":{"x_min":0,"x_max":503,"ha":503,"o":"m 454 0 l 423 0 l 423 243 q 423 288 410 327 q 397 367 374 396 q 349 427 317 443 q 285 458 251 458 q 218 458 186 443 q 154 427 129 396 q 85 342 79 260 l 79 0 l 49 0 l 49 683 l 79 683 l 79 375 q 91 397 105 416 q 135 452 173 470 q 211 489 251 489 q 291 489 329 470 q 367 452 397 416 q 449 350 454 252 z"},"z":{"x_min":0,"x_max":389,"ha":389,"o":"m 324 0 l 49 0 l 49 20 q 146 183 181 239 l 298 434 l 65 434 l 65 464 l 340 464 l 340 445 l 91 31 l 324 31 z"},"B":{"x_min":0,"x_max":520,"ha":520,"o":"m 222 0 l 49 0 l 49 700 q 100 701 132 701 q 165 702 234 702 q 308 702 361 660 q 413 619 418 557 l 418 534 q 416 491 388 457 q 360 423 315 405 q 384 381 426 333 q 468 284 471 219 l 471 200 q 469 144 435 98 q 402 53 346 26 q 290 0 222 0 z m 219 419 l 219 420 q 259 420 289 427 q 318 435 344 457 q 369 476 378 498 q 388 521 388 549 q 388 599 344 635 q 299 671 234 671 q 173 671 146 670 l 80 670 l 80 419 z m 222 30 q 283 30 332 54 q 382 78 411 117 q 440 157 440 204 q 440 246 426 277 q 412 309 377 338 q 342 366 301 377 q 259 389 207 389 l 80 389 l 80 31 z"},"K":{"x_min":0,"x_max":535,"ha":535,"o":"m 79 0 l 49 0 l 49 701 l 79 701 l 79 329 l 443 700 l 485 700 l 221 430 q 269 353 293 312 q 318 271 333 248 q 347 225 363 200 q 378 175 406 130 q 434 84 486 0 l 450 0 l 199 407 q 177 385 166 373 q 154 361 147 355 q 141 348 134 341 q 127 334 115 322 q 103 309 79 285 z"},"R":{"x_min":0,"x_max":527,"ha":527,"o":"m 173 322 q 223 322 270 328 q 273 328 275 328 q 276 329 278 329 q 279 329 282 330 q 354 344 394 387 q 420 417 432 451 q 439 474 439 497 q 439 509 437 521 q 430 563 396 597 q 362 629 326 645 q 290 661 251 666 q 212 671 171 671 l 79 669 l 79 323 q 99 323 125 323 z m 478 0 l 442 0 l 261 295 q 219 292 175 292 l 125 292 q 105 292 79 292 l 79 0 l 49 0 l 49 700 l 66 700 q 97 700 119 701 l 172 702 q 216 702 258 696 q 300 690 340 673 q 379 655 417 619 q 458 579 467 525 q 469 511 469 497 q 469 469 460 441 q 447 400 416 366 q 371 317 293 300 l 466 18 z"},"T":{"x_min":0,"x_max":503,"ha":503,"o":"m 267 0 l 236 0 l 236 669 l 49 669 l 49 700 l 454 700 l 454 669 l 267 669 z"},"P":{"x_min":0,"x_max":518,"ha":518,"o":"m 176 323 q 231 323 282 331 q 354 345 394 388 q 420 417 432 452 q 439 475 439 498 q 439 510 437 521 q 430 564 396 598 q 362 630 326 646 q 290 662 251 667 q 212 672 171 672 l 80 670 l 80 324 q 100 324 125 324 z m 80 0 l 49 0 l 49 701 l 66 701 q 97 701 120 702 l 173 703 q 217 703 259 697 q 300 691 340 674 q 380 656 417 621 q 458 580 467 526 q 469 512 469 498 q 469 470 460 442 q 448 401 416 367 q 370 316 287 300 q 231 292 172 292 l 125 293 q 106 293 80 293 z"},"|":{"x_min":0,"x_max":128,"ha":128,"o":"m 79 -49 l 49 -49 l 49 698 l 79 698 z"},"t":{"x_min":0,"x_max":289,"ha":289,"o":"m 160 0 l 130 0 q 130 84 130 126 q 130 167 130 189 q 130 210 129 230 q 129 252 129 298 q 129 344 129 441 l 49 441 l 49 472 l 129 472 l 129 574 l 159 574 l 159 472 l 240 472 l 240 441 l 159 441 z"},"M":{"x_min":0,"x_max":683,"ha":683,"o":"m 634 0 l 604 0 l 604 638 l 491 435 l 349 178 l 334 178 l 201 419 l 79 638 l 79 0 l 49 0 l 49 700 l 80 700 l 341 228 l 603 700 l 634 700 z"},"g":{"x_min":0,"x_max":584,"ha":584,"o":"m 292 28 q 351 28 399 57 q 447 86 476 135 q 505 184 505 243 q 505 303 476 352 q 447 400 399 429 q 351 458 292 458 q 233 458 185 429 q 136 400 108 351 q 79 302 79 243 q 79 184 108 135 q 137 86 185 57 q 233 28 292 28 z m 305 -172 l 297 -172 q 200 -170 127 -96 q 113 -81 102 -64 q 90 -47 83 -28 l 76 -15 l 104 -2 q 105 -4 105 -6 q 111 -18 115 -27 q 120 -36 127 -47 q 137 -62 149 -75 q 213 -140 298 -142 l 304 -142 q 343 -142 381 -127 q 419 -113 450 -83 q 468 -66 481 -46 q 495 -26 500 -13 q 505 0 505 25 l 505 125 q 489 95 464 70 q 431 36 387 17 q 343 -2 292 -2 q 242 -2 198 17 q 153 36 120 70 q 87 104 68 148 q 49 193 49 243 q 49 294 68 339 q 87 383 120 417 q 153 451 198 470 q 242 489 292 489 q 343 489 387 470 q 431 451 464 417 q 489 392 505 361 l 505 464 l 536 464 l 536 23 q 535 -2 528 -22 q 521 -41 506 -63 q 491 -86 471 -105 q 435 -139 392 -156 q 350 -172 305 -172 z"},"j":{"x_min":0,"x_max":188,"ha":188,"o":"m 63 -177 l 49 -150 q 52 -148 55 -146 q 66 -141 73 -135 q 81 -129 88 -117 q 97 -101 98 -79 l 97 464 l 127 464 q 127 361 127 310 q 127 260 128 234 q 128 208 128 184 q 128 157 128 100 q 128 43 129 -80 q 125 -143 76 -170 z m 113 521 q 102 521 95 529 q 87 537 87 547 q 87 558 95 566 q 103 573 113 573 q 124 573 131 565 q 139 558 139 547 q 139 537 131 529 q 123 521 113 521 z"},"i":{"x_min":0,"x_max":149,"ha":149,"o":"m 89 0 l 59 0 l 59 464 l 89 464 z m 74 521 q 64 521 56 529 q 49 537 49 547 q 49 558 56 565 q 63 573 74 573 q 84 573 92 566 q 100 559 100 547 q 100 537 93 529 q 85 521 74 521 z"},"y":{"x_min":0,"x_max":517,"ha":517,"o":"m 182 -169 q 195 -136 202 -119 q 209 -102 212 -94 q 216 -85 219 -77 q 223 -68 230 -50 q 237 -32 252 5 l 49 464 l 82 464 l 268 44 l 436 464 l 468 464 l 215 -168 z"},"@":{"x_min":0,"x_max":941,"ha":941,"o":"m 470 -156 q 388 -156 315 -126 q 243 -97 186 -44 q 125 12 90 87 q 54 163 49 251 l 49 271 q 49 354 78 427 q 107 500 159 558 q 214 619 289 655 q 364 691 452 696 l 470 696 q 552 696 625 667 q 698 637 755 584 q 815 529 851 453 q 887 378 892 289 l 892 267 q 892 206 878 160 q 853 73 796 30 q 757 0 717 0 q 706 0 695 3 q 660 14 653 52 l 653 129 q 612 54 534 20 q 490 1 439 1 q 389 1 344 20 q 300 39 267 73 q 234 106 215 151 q 196 196 196 247 q 196 297 215 342 q 234 386 267 420 q 300 454 344 473 q 389 492 439 492 q 490 492 534 473 q 578 454 611 420 q 636 396 653 364 l 653 467 l 683 467 l 683 56 q 688 31 718 31 q 747 31 778 55 q 800 71 819 100 q 862 165 862 267 l 861 288 q 857 370 824 440 q 791 510 734 562 q 682 610 614 638 q 546 666 471 666 l 453 665 q 372 661 302 627 q 233 593 182 537 q 133 484 106 416 q 79 347 79 271 l 80 252 q 84 170 117 100 q 150 30 207 -21 q 259 -70 327 -98 q 394 -125 470 -125 l 503 -124 l 504 -155 z m 439 32 q 498 32 546 61 q 595 90 623 138 q 652 187 652 247 q 652 306 623 354 q 595 403 547 432 q 499 461 439 461 q 380 461 332 432 q 284 403 255 354 q 227 306 227 247 q 227 188 255 139 q 284 90 332 61 q 380 32 439 32 z"},".":{"x_min":0,"x_max":148,"ha":148,"o":"m 74 0 q 63 0 56 8 q 49 16 49 26 q 49 37 56 44 q 64 52 74 52 q 85 52 92 44 q 100 36 100 26 q 100 15 92 8 q 84 0 74 0 z"},"p":{"x_min":0,"x_max":585,"ha":585,"o":"m 293 28 q 352 28 400 57 q 448 86 477 135 q 506 184 506 243 q 506 303 477 352 q 449 400 400 429 q 352 458 293 458 q 234 458 186 429 q 138 400 109 352 q 81 303 81 243 q 81 185 109 136 q 138 87 186 58 q 234 28 293 28 z m 79 -174 l 49 -174 l 49 464 l 79 464 l 79 360 q 111 418 167 454 q 224 489 293 489 q 360 489 416 456 q 471 423 503 367 q 536 311 536 243 q 536 176 503 120 q 471 64 416 31 q 360 -2 293 -2 q 223 -2 167 33 q 110 69 79 127 z"},"X":{"x_min":0,"x_max":565,"ha":565,"o":"m 517 0 l 481 0 l 283 326 l 84 0 l 49 0 l 63 24 l 265 355 q 63 686 55 700 l 90 700 l 283 384 l 476 700 l 512 700 l 301 355 q 502 24 517 0 z"},"*":{"x_min":0,"x_max":340,"ha":340,"o":"m 187 465 l 156 465 l 156 554 l 64 501 l 49 528 q 67 538 76 543 q 85 548 90 551 q 95 554 100 557 q 104 560 113 565 q 122 570 139 580 l 49 632 l 64 659 l 156 604 l 156 700 l 187 700 l 187 606 l 276 659 l 291 632 l 201 580 q 218 570 227 565 q 235 560 240 557 q 245 554 250 551 q 255 548 264 543 q 273 538 291 528 l 276 501 l 187 553 z"},"Y":{"x_min":0,"x_max":556,"ha":556,"o":"m 294 0 l 263 0 l 263 349 q 224 414 203 448 q 183 482 171 501 q 160 520 149 537 q 138 554 118 587 q 99 620 59 684 l 49 700 l 85 700 l 279 383 l 472 700 l 507 700 l 294 349 z"},"c":{"x_min":0,"x_max":542,"ha":542,"o":"m 292 2 q 252 2 214 16 q 176 29 142 55 q 62 121 51 219 q 49 233 49 249 q 49 288 62 327 q 74 366 101 399 q 167 480 263 492 q 277 494 292 494 q 331 494 370 481 q 408 468 442 441 l 454 432 l 435 408 l 423 417 q 394 440 361 452 q 327 463 293 463 q 280 463 267 461 q 182 451 125 381 q 102 351 91 317 q 80 284 80 249 q 80 235 81 222 q 91 137 161 79 q 190 56 224 44 q 258 33 293 33 q 305 33 318 35 q 402 45 459 116 l 469 128 l 493 109 l 483 97 q 418 16 321 4 q 307 2 292 2 z"},"!":{"x_min":0,"x_max":148,"ha":148,"o":"m 89 85 l 59 85 l 59 700 l 89 700 z m 74 0 q 63 0 56 8 q 49 16 49 26 q 49 37 56 44 q 64 52 74 52 q 85 52 92 44 q 100 36 100 26 q 100 15 92 8 q 84 0 74 0 z"},"/":{"x_min":0,"x_max":669,"ha":669,"o":"m 73 -6 l 49 13 l 597 709 l 621 690 z"},"[":{"x_min":0,"x_max":369,"ha":369,"o":"m 320 -80 l 51 -80 l 51 -76 l 49 -76 l 49 703 l 51 703 l 51 703 l 320 703 l 320 672 l 79 672 l 79 -49 l 320 -49 z"},"6":{"x_min":0,"x_max":516,"ha":516,"o":"m 256 21 q 306 21 347 46 q 388 70 412 111 q 436 152 436 203 q 436 253 412 294 q 388 335 347 360 q 306 384 256 384 q 207 384 166 360 q 125 335 101 294 q 77 253 77 203 q 77 153 101 112 q 125 70 166 46 q 207 21 256 21 z m 256 -9 q 170 -9 108 53 q 49 113 49 197 q 49 260 81 322 q 264 685 271 699 l 298 685 l 146 383 q 196 415 256 415 q 300 415 338 398 q 376 382 405 353 q 434 324 450 285 q 467 247 467 203 q 467 159 450 120 q 434 82 405 53 q 376 23 338 7 q 300 -9 256 -9 z"},"r":{"x_min":0,"x_max":247,"ha":247,"o":"m 80 0 l 49 0 l 49 237 l 49 237 l 49 238 l 49 464 l 80 464 l 80 362 q 119 435 198 470 l 198 436 q 146 410 114 361 q 83 313 80 251 l 80 241 z"},"2":{"x_min":0,"x_max":479,"ha":479,"o":"m 422 -2 l 49 -2 l 50 29 q 58 83 88 132 q 118 182 160 229 q 203 276 248 320 q 288 359 322 396 q 356 433 378 468 q 399 502 399 535 l 399 541 q 399 551 396 560 q 385 608 339 640 q 318 653 291 661 q 264 669 231 669 l 214 669 q 190 667 162 661 l 155 659 q 142 656 128 651 q 111 646 93 638 l 79 632 l 67 661 q 72 663 76 665 q 87 669 96 672 q 105 676 119 680 q 138 687 155 691 q 185 698 212 700 l 230 700 q 268 700 299 691 q 331 682 355 665 q 412 626 426 567 q 429 555 430 542 l 430 536 q 430 497 407 458 q 384 419 348 379 q 312 339 269 298 q 204 235 149 168 q 94 101 81 29 l 422 29 z"},"{":{"x_min":0,"x_max":383,"ha":383,"o":"m 300 -52 q 257 -52 234 -36 q 210 -21 199 5 q 188 31 185 63 q 182 96 182 131 q 181 163 178 194 q 175 225 164 250 q 153 274 130 289 q 106 304 64 304 l 49 304 l 49 344 l 64 344 q 106 344 130 359 q 153 375 164 399 q 175 424 178 455 q 181 486 182 518 q 182 553 185 586 q 188 618 199 644 q 210 669 234 685 q 257 700 300 700 l 334 698 l 332 667 l 316 669 l 303 669 q 270 669 252 657 q 234 644 225 623 q 217 601 215 574 q 212 546 212 517 q 211 476 207 438 q 202 399 186 369 q 169 339 131 324 q 169 309 186 279 q 202 250 207 211 q 211 173 212 132 q 212 103 215 75 q 217 48 225 26 q 234 5 252 -8 q 270 -21 303 -21 q 310 -21 313 -20 q 317 -20 321 -20 q 325 -20 332 -19 l 334 -49 l 319 -51 z"},"9":{"x_min":0,"x_max":516,"ha":516,"o":"m 259 305 q 309 305 349 330 q 390 354 414 395 q 438 437 438 487 q 438 536 415 577 q 391 619 350 643 q 309 668 259 668 q 209 668 168 643 q 127 619 104 577 q 80 536 80 487 q 80 436 104 395 q 128 354 169 329 q 210 305 259 305 z m 245 -9 l 218 4 l 370 307 q 320 274 259 274 q 216 274 177 291 q 139 308 110 337 q 82 366 65 404 q 49 443 49 487 q 49 531 65 569 q 82 608 110 637 q 172 699 259 699 q 302 699 341 682 q 379 666 408 637 q 467 576 467 492 q 467 429 435 367 q 252 4 245 -9 z"}," ":{"x_min":0,"x_max":293,"ha":293,"o":""},"I":{"x_min":0,"x_max":128,"ha":128,"o":"m 79 0 l 49 0 l 49 700 l 79 700 z"},"H":{"x_min":0,"x_max":501,"ha":501,"o":"m 452 0 l 421 0 l 421 356 l 79 356 l 79 0 l 49 0 l 49 701 l 79 701 l 79 387 l 421 387 l 421 701 l 452 701 z"},"4":{"x_min":0,"x_max":428,"ha":428,"o":"m 349 293 l 349 639 l 93 293 z m 379 -2 l 349 -2 l 349 263 l 49 263 l 50 287 l 356 701 l 379 701 z"},"~":{"x_min":0,"x_max":383,"ha":383,"o":"m 262 329 q 242 329 221 335 q 201 342 180 350 q 163 356 146 362 q 129 367 114 367 q 95 367 82 354 l 71 342 l 49 363 q 65 382 78 390 q 91 398 113 398 q 131 398 151 392 q 170 386 190 379 q 209 372 227 366 q 244 360 260 360 q 286 360 301 380 l 311 393 l 334 374 q 316 350 302 339 q 287 329 262 329 z"},"D":{"x_min":0,"x_max":566,"ha":566,"o":"m 161 29 q 214 29 264 37 q 373 53 439 144 q 488 231 488 340 q 488 364 485 387 q 471 518 389 599 q 356 629 321 645 q 262 671 168 671 l 79 669 l 79 30 z m 162 -1 l 113 0 q 81 0 49 0 l 49 700 l 117 701 l 188 700 q 246 700 302 684 q 357 669 410 620 q 455 576 481 517 q 518 435 518 341 q 518 223 464 128 l 463 127 q 407 47 326 20 q 264 -1 162 -1 z"},"^":{"x_min":0,"x_max":271,"ha":271,"o":"m 196 573 l 136 682 l 75 573 l 49 588 l 98 700 l 174 700 l 223 588 z"},"0":{"x_min":0,"x_max":682,"ha":682,"o":"m 341 -2 q 260 -2 194 45 q 127 92 88 172 q 49 251 49 348 q 49 444 88 524 q 127 604 194 651 q 260 698 341 698 q 422 698 489 651 q 555 603 594 523 q 633 444 633 348 q 633 251 594 172 q 555 92 489 45 q 422 -2 341 -2 z m 341 28 q 413 28 472 71 q 532 114 567 186 q 603 259 603 348 q 603 415 582 473 q 562 531 526 575 q 490 618 442 643 q 395 667 341 667 q 269 667 209 624 q 150 581 115 509 q 80 436 80 348 q 80 261 115 188 q 149 115 209 72 q 268 28 341 28 z"},"F":{"x_min":0,"x_max":496,"ha":496,"o":"m 79 0 l 49 0 l 49 700 l 63 700 l 447 700 l 447 669 l 79 669 l 79 383 l 444 383 l 444 353 l 79 353 z"},"`":{"x_min":0,"x_max":187,"ha":187,"o":"m 111 572 l 49 685 l 89 700 l 138 587 z"},"k":{"x_min":0,"x_max":392,"ha":392,"o":"m 309 0 q 276 56 259 85 q 241 114 232 130 q 223 146 214 160 q 206 176 189 205 q 172 234 138 292 l 79 226 l 79 0 l 49 0 l 49 683 l 79 683 l 79 272 q 117 314 135 335 q 153 355 161 364 q 169 373 177 382 q 185 392 201 410 q 218 429 250 465 l 290 464 q 264 435 251 420 q 238 405 231 397 q 225 390 217 382 q 210 374 198 359 q 185 345 159 316 l 343 0 z"},"u":{"x_min":0,"x_max":503,"ha":503,"o":"m 252 0 q 211 0 174 18 q 136 35 106 70 q 54 132 49 225 l 49 464 l 79 464 l 79 249 l 80 233 q 80 191 93 155 q 106 118 129 90 q 154 61 186 46 q 218 31 252 31 q 286 31 318 46 q 350 61 375 90 q 424 149 424 233 l 424 249 l 424 464 l 455 464 l 455 224 q 450 132 397 70 q 368 35 330 18 q 292 0 252 0 z"},"]":{"x_min":0,"x_max":369,"ha":369,"o":"m 318 -80 l 49 -80 l 49 -49 l 290 -49 l 290 672 l 49 672 l 49 703 l 318 703 l 318 703 l 320 703 l 320 -76 l 318 -76 z"},"U":{"x_min":0,"x_max":699,"ha":699,"o":"m 360 0 l 339 0 q 258 3 193 50 q 128 96 90 173 q 51 250 49 345 l 49 700 l 80 700 l 80 351 q 80 263 115 190 q 151 118 211 74 q 271 31 345 31 q 464 31 541 124 q 578 167 599 226 q 620 284 620 351 l 620 700 l 650 700 l 650 343 q 648 250 609 173 q 571 96 506 50 q 441 3 360 0 z"},"o":{"x_min":0,"x_max":584,"ha":584,"o":"m 292 28 q 350 28 398 57 q 447 86 476 135 q 504 184 504 243 q 504 303 476 352 q 447 400 399 429 q 351 458 292 458 q 233 458 185 429 q 137 400 108 352 q 79 303 79 243 q 79 185 108 136 q 136 87 185 58 q 233 28 292 28 z m 292 -2 q 225 -2 169 31 q 114 64 82 120 q 49 176 49 243 q 49 311 82 366 q 114 422 169 456 q 225 489 292 489 q 359 489 414 456 q 469 423 502 367 q 535 311 535 243 q 535 192 516 148 q 497 104 464 70 q 431 36 386 17 q 342 -2 292 -2 z"},"N":{"x_min":0,"x_max":691,"ha":691,"o":"m 643 0 l 612 0 l 80 651 l 80 0 l 49 0 l 49 700 l 80 700 l 612 49 l 612 700 l 643 700 z"},"+":{"x_min":0,"x_max":557,"ha":557,"o":"m 293 85 l 263 85 l 263 311 l 49 311 l 49 342 l 263 342 l 263 549 l 293 549 l 293 342 l 508 342 l 508 311 l 293 311 z"},"G":{"x_min":0,"x_max":732,"ha":732,"o":"m 419 -22 q 317 -22 233 29 q 148 79 99 164 q 49 249 49 352 q 49 456 99 541 q 148 625 233 676 q 317 726 419 726 q 488 726 546 704 q 604 682 659 637 l 640 613 q 613 635 588 650 q 563 665 530 677 q 476 695 419 695 q 326 695 249 649 q 171 604 125 526 q 79 448 79 352 q 79 257 125 179 q 171 102 248 55 q 325 9 419 9 q 482 9 542 32 q 602 56 651 101 l 652 103 l 653 316 l 684 316 l 683 89 l 682 89 l 683 89 q 652 60 623 40 q 594 20 555 4 q 489 -22 419 -22 z"},"q":{"x_min":0,"x_max":585,"ha":585,"o":"m 292 28 q 351 28 399 57 q 447 86 476 135 q 505 184 505 243 q 505 303 476 352 q 447 400 399 429 q 351 458 292 458 q 233 458 185 429 q 137 400 108 352 q 79 303 79 243 q 79 199 96 160 q 112 121 142 91 q 171 62 209 45 q 248 28 292 28 z m 537 -174 l 506 -174 l 506 127 q 474 68 418 33 q 361 -2 292 -2 q 225 -2 169 31 q 114 64 82 120 q 49 176 49 243 q 49 311 82 367 q 114 423 169 456 q 225 489 292 489 q 361 489 418 454 q 474 418 506 360 l 506 464 l 537 464 z"},"d":{"x_min":0,"x_max":584,"ha":584,"o":"m 292 28 q 351 28 399 57 q 447 86 476 135 q 504 184 504 243 q 504 303 476 352 q 447 400 399 429 q 351 458 292 458 q 233 458 185 429 q 137 400 108 352 q 79 303 79 243 q 79 184 108 135 q 137 86 185 57 q 233 28 292 28 z m 292 -2 q 225 -2 169 31 q 114 64 82 120 q 49 176 49 243 q 49 311 82 367 q 114 423 169 456 q 225 489 292 489 q 361 489 417 454 q 474 419 505 361 l 505 683 l 536 683 l 536 0 l 505 0 l 505 125 q 474 68 417 33 q 361 -2 292 -2 z"},"1":{"x_min":0,"x_max":191,"ha":191,"o":"m 143 -2 l 112 -2 l 112 637 l 72 588 l 49 607 l 122 698 l 143 698 z"},"5":{"x_min":0,"x_max":563,"ha":563,"o":"m 271 -20 q 204 -20 146 15 q 89 50 56 111 l 49 124 l 76 139 q 92 106 111 83 q 130 61 161 42 q 212 11 271 11 q 329 11 377 40 q 426 69 455 118 q 483 167 483 226 q 483 286 455 334 q 426 383 377 412 q 329 441 271 441 q 224 441 181 421 q 151 407 132 392 q 113 376 95 353 l 64 353 l 64 697 l 438 697 l 438 667 l 95 667 l 95 396 q 170 472 271 472 q 338 472 393 438 q 448 405 481 350 q 514 294 514 226 q 514 158 481 103 q 448 47 393 14 q 338 -20 271 -20 z"}}}
